<?xml version="1.0" encoding="UTF-8"?>
<!DOCTYPE svg PUBLIC "-//W3C//DTD SVG 1.1//EN" "http://www.w3.org/Graphics/SVG/1.1/DTD/svg11.dtd">
<!-- Creator: CorelDRAW -->
<svg xmlns="http://www.w3.org/2000/svg" xml:space="preserve" width="6.82666in" height="6.82666in" style="shape-rendering:geometricPrecision; text-rendering:geometricPrecision; image-rendering:optimizeQuality; fill-rule:evenodd; clip-rule:evenodd"
viewBox="0 0 6.82666 6.82666"
 xmlns:xlink="http://www.w3.org/1999/xlink"
 version="1.1">
 <defs>
  <style type="text/css">
   <![CDATA[
    .fil5 {fill:none}
    .fil4 {fill:#1B75BC}
    .fil0 {fill:#222025}
    .fil1 {fill:#2BB673}
    .fil2 {fill:#2D2D2D}
    .fil3 {fill:white}
   ]]>
  </style>
 </defs>
 <g id="Layer_x0020_1">
  <metadata id="CorelCorpID_0Corel-Layer"/>
  <g id="_673965288">
   <g id="Guides">
   </g>
   <g id="Layer_2">
   </g>
   <g id="Layer_3">
   </g>
   <g id="Layer_4">
   </g>
   <g id="Layer_5">
   </g>
   <g id="Layer_6">
   </g>
   <g id="Layer_7">
   </g>
   <g id="Layer_8">
   </g>
   <g id="Layer_9">
   </g>
   <g id="Layer_10">
   </g>
   <g id="Layer_11">
   </g>
   <g id="Layer_12">
   </g>
   <g id="Layer_13">
   </g>
   <g id="Layer_14">
   </g>
   <g id="Layer_15">
   </g>
   <g id="Layer_16">
   </g>
   <g id="Layer_17">
   </g>
   <g id="Layer_18">
   </g>
   <g id="Layer_19">
   </g>
   <g id="Layer_20">
   </g>
   <g id="Layer_21">
   </g>
   <g id="Layer_22">
   </g>
   <g id="Layer_23">
    <g>
     <g>
      <g>
       <g>
        <path id="_562419024" class="fil0" d="M4.66091 5.89333l-2.49513 0c-0.120768,0 -0.218665,-0.0979016 -0.218665,-0.218665l0 -4.52267c0,-0.120768 0.0979016,-0.218665 0.218665,-0.218665l2.4951 -3.93701e-006c0.120768,0 0.218665,0.0979016 0.218665,0.218665l3.93701e-006 4.52267c0,0.120768 -0.0979016,0.218669 -0.218634,0.218669z"/>
       </g>
      </g>
      <g>
       <g>
        <rect id="_562416408" class="fil1" x="2.09441" y="1.338" width="2.6379" height="3.84213"/>
       </g>
      </g>
      <g>
       <g>
        <circle id="_562415880" class="fil2" cx="3.41335" cy="5.53673" r="0.193433"/>
       </g>
      </g>
      <g>
       <g>
        <g>
         <circle id="_562415976" class="fil2" cx="2.94948" cy="1.13567" r="0.0483661"/>
        </g>
       </g>
       <g>
        <g>
         <path id="_562415736" class="fil2" d="M3.88178 1.18403l-0.656634 0c-0.0242008,0 -0.0437992,-0.0195984 -0.0437992,-0.0437992l0 -0.00293307c0,-0.0242008 0.0195984,-0.0437992 0.0437992,-0.0437992l0.656602 0c0.0242008,0 0.0437992,0.0195984 0.0437992,0.0437992l0 0.00293307c3.14961e-005,0.0241654 -0.0196024,0.0437992 -0.0437677,0.0437992z"/>
        </g>
       </g>
      </g>
     </g>
     <g>
      <g>
       <path id="_562415280" class="fil3" d="M4.05151 3.05487c0.00443307,-0.0161339 0.00686614,-0.0331339 0.00686614,-0.0507008 0,-0.105165 -0.0852323,-0.190402 -0.190402,-0.190402 -0.0243661,0 -0.0476339,0.00463386 -0.0690315,0.0129685 -0.0455984,-0.155634 -0.189402,-0.269299 -0.359768,-0.269299 -0.160299,0 -0.297031,0.100598 -0.350665,0.242098 -0.0215315,-0.00556693 -0.0440984,-0.0085315 -0.0673661,-0.0085315 -0.148201,0 -0.268335,0.120134 -0.268335,0.268335 0,0.000732283 3.14961e-005,0.00143307 6.69291e-005,0.00216535 -0.123634,0.0419016 -0.212634,0.158933 -0.212634,0.296732 0,0.173 0.140232,0.313232 0.313232,0.313232l1.11974 0c0.173,0 0.313232,-0.140232 0.313232,-0.313232 0,-0.145969 -0.0998307,-0.268602 -0.234933,-0.303366z"/>
      </g>
     </g>
     <g>
      <g>
       <g>
        <circle id="_550034128" class="fil3" cx="2.99118" cy="4.29166" r="0.124634"/>
       </g>
      </g>
      <g>
       <g>
        <circle id="_550035952" class="fil3" cx="3.41335" cy="4.29166" r="0.124634"/>
       </g>
      </g>
      <g>
       <g>
        <circle id="_550035544" class="fil3" cx="3.83551" cy="4.29166" r="0.124634"/>
       </g>
      </g>
     </g>
     <g>
      <g>
       <g>
        <g>
         <rect id="_550034824" class="fil4" x="3.30961" y="2.97533" width="0.2075" height="0.350701"/>
        </g>
       </g>
       <g>
        <g>
         <polygon id="_550034632" class="fil4" points="3.41335,2.8114 3.23588,3.05137 3.59081,3.05137 "/>
        </g>
       </g>
      </g>
      <g>
       <g>
        <g>
         <rect id="_550034368" class="fil4" x="3.06905" y="3.38983" width="0.688598" height="0.102402"/>
        </g>
       </g>
       <g>
        <g>
         <rect id="_385909696" class="fil4" transform="matrix(6.12323E-017 -1 1 6.12323E-017 3.06903 3.49222)" width="0.203701" height="0.102402"/>
        </g>
       </g>
       <g>
        <g>
         <rect id="_673966032" class="fil4" transform="matrix(6.12323E-017 -1 1 6.12323E-017 3.65526 3.49221)" width="0.203701" height="0.102402"/>
        </g>
       </g>
      </g>
     </g>
    </g>
   </g>
   <g id="Layer_24">
   </g>
   <g id="Layer_25">
   </g>
   <g id="Layer_26">
   </g>
  </g>
 </g>
 <rect class="fil5" width="6.82666" height="6.82666"/>
</svg>
